<mxfile host="app.diagrams.net" modified="2024-01-26T00:20:17.891Z" agent="Mozilla/5.0 (iPad; CPU OS 17_2 like Mac OS X) AppleWebKit/605.1.15 (KHTML, like Gecko) CriOS/120.0.6099.119 Mobile/15E148 Safari/604.1" version="23.0.2" etag="eY_A0DWWOKBrYP_L1iQy" type="github">
  <diagram name="Page-1" id="UXG7437SdkDgBmGfvYSl">
    <mxGraphModel>
      <root>
        <mxCell id="0" />
        <mxCell id="1" parent="0" />
      </root>
    </mxGraphModel>
  </diagram>
</mxfile>
